<svg width="278" height="32" viewBox="0 0 278 32" fill="none" xmlns="http://www.w3.org/2000/svg">
<path d="M4.97438 31.04C3.53438 31.04 2.49438 30.68 1.85438 29.96C1.21438 29.24 0.894375 28.08 0.894375 26.48C0.894375 25.1467 1.08104 23.1467 1.45438 20.48C1.82771 17.7867 2.54771 13.28 3.61437 6.96L1.85438 3.4C4.38771 1.77333 6.68104 0.96 8.73438 0.96C10.441 0.96 11.2944 2 11.2944 4.08C11.2944 4.53333 11.1477 5.6 10.8544 7.28C10.5877 8.96 10.281 10.7467 9.93438 12.64C9.32104 16.2133 8.85438 18.9867 8.53438 20.96C8.24104 22.9067 8.09438 24.2933 8.09438 25.12C8.09438 26.16 8.17438 27.0267 8.33438 27.72C8.52104 28.3867 8.81438 28.9867 9.21438 29.52C7.96104 30.5333 6.54771 31.04 4.97438 31.04ZM12.0144 19.56C10.9477 19.56 9.60104 19.3467 7.97438 18.92L8.69438 15.08C9.89438 15.32 11.201 15.44 12.6144 15.44L15.9744 14.6C16.001 14.7067 16.0144 14.8267 16.0144 14.96C16.0144 15.0933 16.0277 15.2133 16.0544 15.32C16.081 15.4533 16.0944 15.6 16.0944 15.76C16.0944 15.8933 16.0944 16.0267 16.0944 16.16C16.0944 17.2267 15.7344 18.0667 15.0144 18.68C14.2944 19.2667 13.2944 19.56 12.0144 19.56ZM15.6944 8.88C14.4677 8.88 13.1077 8.74667 11.6144 8.48C10.1477 8.18667 8.89438 7.81333 7.85438 7.36L8.53438 3.12C10.7477 3.12 12.721 2.98666 14.4544 2.72C16.1877 2.45333 18.3477 2.02667 20.9344 1.44C21.121 1.41333 21.3077 1.37333 21.4944 1.32C21.681 1.26667 21.8544 1.21333 22.0144 1.16C22.201 1.96 22.2944 2.70667 22.2944 3.4C22.2944 5.16 21.6944 6.52 20.4944 7.48C19.2944 8.41333 17.6944 8.88 15.6944 8.88ZM35.8669 20.4C34.5869 20.4 33.4669 20.2667 32.5069 20C31.5735 19.7333 30.6135 19.2667 29.6269 18.6L29.9869 14.96C30.4935 15.36 31.0935 15.6667 31.7869 15.88C32.4802 16.0667 33.2002 16.16 33.9469 16.16C35.3602 16.16 36.6135 15.9067 37.7069 15.4C38.8269 14.8667 39.6935 14.1333 40.3069 13.2C40.9202 12.24 41.2269 11.16 41.2269 9.96C41.2269 8.70667 40.8269 7.64 40.0269 6.76C39.2269 5.85333 38.0402 5.4 36.4669 5.4C35.5869 5.4 34.6802 5.61333 33.7469 6.04C32.8402 6.46667 31.8535 7.09333 30.7869 7.92V4.76C31.8002 3.90666 32.6935 3.22666 33.4669 2.72C34.2402 2.21333 35.1602 1.81333 36.2269 1.52C37.2935 1.2 38.5335 1.04 39.9469 1.04C41.7602 1.04 43.3202 1.42666 44.6269 2.2C45.9602 2.97333 46.9602 4 47.6269 5.28C48.3202 6.56 48.6669 7.93333 48.6669 9.4C48.6669 11.2667 48.1869 13.04 47.2269 14.72C46.2935 16.4 44.8669 17.7733 42.9469 18.84C41.0269 19.88 38.6669 20.4 35.8669 20.4ZM27.7869 31.04C26.3469 31.04 25.3069 30.68 24.6669 29.96C24.0269 29.24 23.7069 28.08 23.7069 26.48C23.7069 25.1733 23.8802 23.1867 24.2269 20.52C24.6002 17.8533 25.3335 13.3333 26.4269 6.96L24.6669 3.4C27.2002 1.77333 29.4935 0.96 31.5469 0.96C33.2535 0.96 34.1069 2 34.1069 4.08C34.1069 4.74667 33.7202 7.16 32.9469 11.32C32.3069 14.84 31.8002 17.72 31.4269 19.96C31.0802 22.2 30.9069 23.92 30.9069 25.12C30.9069 26.16 30.9869 27.0267 31.1469 27.72C31.3335 28.3867 31.6269 28.9867 32.0269 29.52C30.6935 30.5333 29.2802 31.04 27.7869 31.04ZM44.7069 31C43.6402 31 42.7335 30.8 41.9869 30.4C41.2402 30.0267 40.5469 29.3733 39.9069 28.44C39.2935 27.48 38.6402 26.1067 37.9469 24.32L35.8669 19.04L42.3069 16.4C43.4802 19.5467 44.6935 22.2533 45.9469 24.52C47.2269 26.76 48.4135 28.3067 49.5069 29.16C49.0269 29.64 48.3069 30.0667 47.3469 30.44C46.3869 30.8133 45.5069 31 44.7069 31ZM57.3181 31.04C55.8781 31.04 54.8381 30.68 54.1981 29.96C53.5581 29.24 53.2381 28.08 53.2381 26.48C53.2381 25.1467 53.4248 23.1467 53.7981 20.48C54.1715 17.7867 54.8915 13.28 55.9581 6.96L54.1981 3.4C56.7315 1.77333 59.0248 0.96 61.0781 0.96C62.7848 0.96 63.6381 2 63.6381 4.08C63.6381 4.53333 63.4915 5.6 63.1981 7.28C62.9315 8.96 62.6248 10.7467 62.2781 12.64C61.6648 16.2133 61.1981 18.9867 60.8781 20.96C60.5848 22.9067 60.4381 24.2933 60.4381 25.12C60.4381 26.1333 60.5448 26.9733 60.7581 27.64C60.9981 28.28 61.3848 28.8533 61.9181 29.36C60.5315 30.48 58.9981 31.04 57.3181 31.04ZM67.1981 31C65.6248 31 64.1181 30.8133 62.6781 30.44C61.2381 30.0933 59.8115 29.5333 58.3981 28.76L58.9181 25.52H67.5181C69.3848 25.2533 71.1581 24.8 72.8381 24.16C73.1048 24.88 73.2381 25.6267 73.2381 26.4C73.2381 27.8933 72.7315 29.04 71.7181 29.84C70.7048 30.6133 69.1981 31 67.1981 31ZM64.3581 19.56C63.2915 19.56 61.9448 19.3467 60.3181 18.92L61.0381 15.08C62.2381 15.32 63.5448 15.44 64.9581 15.44L68.3181 14.6C68.3448 14.7067 68.3581 14.8267 68.3581 14.96C68.3581 15.0933 68.3715 15.2133 68.3981 15.32C68.4248 15.4533 68.4381 15.6 68.4381 15.76C68.4381 15.8933 68.4381 16.0267 68.4381 16.16C68.4381 17.2267 68.0781 18.0667 67.3581 18.68C66.6381 19.2667 65.6381 19.56 64.3581 19.56ZM68.4381 8.88C67.2115 8.88 65.8515 8.74667 64.3581 8.48C62.8915 8.18667 61.6381 7.81333 60.5981 7.36L61.2781 3.12C63.4915 3.12 65.4648 2.98666 67.1981 2.72C68.9315 2.45333 71.0915 2.02667 73.6781 1.44C73.8648 1.41333 74.0515 1.37333 74.2381 1.32C74.4248 1.26667 74.5981 1.21333 74.7581 1.16C74.9448 1.96 75.0381 2.70667 75.0381 3.4C75.0381 5.16 74.4381 6.52 73.2381 7.48C72.0381 8.41333 70.4381 8.88 68.4381 8.88ZM87.3322 31C83.7855 31 81.0789 30.5333 79.2122 29.6C77.3722 28.64 76.4522 27.3333 76.4522 25.68C76.4522 25.0133 76.6122 24.3467 76.9322 23.68C77.2789 23.0133 77.7455 22.4533 78.3322 22C79.3189 23.6 80.5322 24.84 81.9722 25.72C83.4389 26.5733 85.1055 27 86.9722 27C88.8389 27 90.3455 26.6933 91.4922 26.08C92.6655 25.4667 93.2522 24.56 93.2522 23.36C93.2522 22.7467 93.0122 22.2133 92.5322 21.76C92.0522 21.3067 91.4389 20.92 90.6922 20.6C89.9722 20.28 88.9589 19.88 87.6522 19.4C85.6789 18.7067 84.0522 18.04 82.7722 17.4C81.5189 16.76 80.4255 15.8667 79.4922 14.72C78.5855 13.5733 78.1322 12.1467 78.1322 10.44C78.1322 8.46667 78.7722 6.77333 80.0522 5.36C81.3322 3.92 83.0789 2.82667 85.2922 2.08C87.5322 1.33333 90.0522 0.96 92.8522 0.96C94.7722 0.96 96.4522 1.16 97.8922 1.56C99.3589 1.96 100.479 2.52 101.252 3.24C102.052 3.96 102.452 4.77333 102.452 5.68C102.452 6.96 102.026 7.96 101.172 8.68C100.319 9.37333 99.2255 9.72 97.8922 9.72C96.6122 9.72 95.4789 9.36 94.4922 8.64C93.5322 7.89333 92.7855 6.81333 92.2522 5.4C90.2255 5.61333 88.5855 6.10667 87.3322 6.88C86.0789 7.62667 85.4522 8.53333 85.4522 9.6C85.4522 10.2133 85.6922 10.7467 86.1722 11.2C86.6789 11.6533 87.2922 12.04 88.0122 12.36C88.7589 12.6533 89.7989 13.0267 91.1322 13.48C93.1055 14.1467 94.7189 14.7867 95.9722 15.4C97.2255 16.0133 98.3055 16.8667 99.2122 17.96C100.119 19.0533 100.572 20.44 100.572 22.12C100.572 23.9333 99.9722 25.5067 98.7722 26.84C97.5722 28.1733 95.9589 29.2 93.9322 29.92C91.9322 30.64 89.7322 31 87.3322 31ZM128.358 31.04C126.918 31.04 125.878 30.68 125.238 29.96C124.598 29.24 124.278 28.08 124.278 26.48C124.278 25.1467 124.464 23.16 124.838 20.52C125.211 17.8533 125.944 13.3333 127.038 6.96L125.238 3.4C127.771 1.77333 130.064 0.96 132.118 0.96C133.824 0.96 134.678 2 134.678 4.08C134.678 4.53333 134.531 5.6 134.238 7.28C133.971 8.96 133.664 10.7467 133.318 12.64C132.704 16.2133 132.238 18.9867 131.918 20.96C131.624 22.9067 131.478 24.2933 131.478 25.12C131.478 26.16 131.558 27.0267 131.718 27.72C131.904 28.3867 132.198 28.9867 132.598 29.52C131.264 30.5333 129.851 31.04 128.358 31.04ZM110.678 31.04C109.238 31.04 108.198 30.68 107.558 29.96C106.918 29.24 106.598 28.08 106.598 26.48C106.598 25.1733 106.771 23.1867 107.118 20.52C107.491 17.8533 108.224 13.3333 109.317 6.96L107.558 3.4C110.091 1.77333 112.384 0.96 114.438 0.96C116.144 0.96 116.998 2 116.998 4.08C116.998 4.53333 116.851 5.6 116.558 7.28C116.291 8.96 115.984 10.7467 115.638 12.64C115.024 16.2133 114.558 18.9867 114.238 20.96C113.944 22.9067 113.798 24.2933 113.798 25.12C113.798 26.16 113.878 27.0267 114.038 27.72C114.224 28.3867 114.518 28.9867 114.918 29.52C113.584 30.5333 112.171 31.04 110.678 31.04ZM112.998 14.92H127.958L127.278 18.96H112.238L112.998 14.92ZM151.609 20.4C150.329 20.4 149.209 20.2667 148.249 20C147.316 19.7333 146.356 19.2667 145.369 18.6L145.729 14.96C146.236 15.36 146.836 15.6667 147.529 15.88C148.222 16.0667 148.942 16.16 149.689 16.16C151.102 16.16 152.356 15.9067 153.449 15.4C154.569 14.8667 155.436 14.1333 156.049 13.2C156.662 12.24 156.969 11.16 156.969 9.96C156.969 8.70667 156.569 7.64 155.769 6.76C154.969 5.85333 153.782 5.4 152.209 5.4C151.329 5.4 150.422 5.61333 149.489 6.04C148.582 6.46667 147.596 7.09333 146.529 7.92V4.76C147.542 3.90666 148.436 3.22666 149.209 2.72C149.982 2.21333 150.902 1.81333 151.969 1.52C153.036 1.2 154.276 1.04 155.689 1.04C157.502 1.04 159.062 1.42666 160.369 2.2C161.702 2.97333 162.702 4 163.369 5.28C164.062 6.56 164.409 7.93333 164.409 9.4C164.409 11.2667 163.929 13.04 162.969 14.72C162.036 16.4 160.609 17.7733 158.689 18.84C156.769 19.88 154.409 20.4 151.609 20.4ZM143.529 31.04C142.089 31.04 141.049 30.68 140.409 29.96C139.769 29.24 139.449 28.08 139.449 26.48C139.449 25.1733 139.622 23.1867 139.969 20.52C140.342 17.8533 141.076 13.3333 142.169 6.96L140.409 3.4C142.942 1.77333 145.236 0.96 147.289 0.96C148.996 0.96 149.849 2 149.849 4.08C149.849 4.74667 149.462 7.16 148.689 11.32C148.049 14.84 147.542 17.72 147.169 19.96C146.822 22.2 146.649 23.92 146.649 25.12C146.649 26.16 146.729 27.0267 146.889 27.72C147.076 28.3867 147.369 28.9867 147.769 29.52C146.436 30.5333 145.022 31.04 143.529 31.04ZM160.449 31C159.382 31 158.476 30.8 157.729 30.4C156.982 30.0267 156.289 29.3733 155.649 28.44C155.036 27.48 154.382 26.1067 153.689 24.32L151.609 19.04L158.049 16.4C159.222 19.5467 160.436 22.2533 161.689 24.52C162.969 26.76 164.156 28.3067 165.249 29.16C164.769 29.64 164.049 30.0667 163.089 30.44C162.129 30.8133 161.249 31 160.449 31ZM179.5 31C177.074 31 174.94 30.4933 173.1 29.48C171.287 28.44 169.874 27 168.86 25.16C167.874 23.2933 167.38 21.1467 167.38 18.72C167.38 15.2267 168.087 12.1333 169.5 9.44C170.914 6.74667 172.794 4.66667 175.14 3.2C177.487 1.73333 180.02 0.999999 182.74 0.999999C184.367 0.999999 185.54 1.26667 186.26 1.8C186.98 2.30666 187.34 3.13333 187.34 4.28C187.34 4.68 187.3 5.04 187.22 5.36C187.167 5.65333 187.047 6 186.86 6.4C186.54 6.32 186.154 6.25333 185.7 6.2C185.247 6.12 184.86 6.08 184.54 6.08C182.647 6.08 180.954 6.62666 179.46 7.72C177.994 8.81333 176.834 10.32 175.98 12.24C175.154 14.16 174.74 16.2933 174.74 18.64C174.74 21.4667 175.3 23.6267 176.42 25.12C177.567 26.5867 179.127 27.32 181.1 27.32C182.46 27.32 183.807 26.9067 185.14 26.08C186.5 25.2533 187.66 24.0933 188.62 22.6C189.58 21.1067 190.194 19.4133 190.46 17.52C188.727 16.72 187.474 15.7067 186.7 14.48C185.954 13.2533 185.58 11.88 185.58 10.36C185.58 8.92 186.02 7.72 186.9 6.76C187.807 5.77333 188.927 5.28 190.26 5.28C191.86 5.28 193.114 5.94667 194.02 7.28C194.954 8.58666 195.42 10.4133 195.42 12.76C195.42 16.2 194.727 19.3067 193.34 22.08C191.98 24.8533 190.087 27.04 187.66 28.64C185.234 30.2133 182.514 31 179.5 31ZM221.089 31.04C219.782 31.04 218.796 30.64 218.129 29.84C217.489 29.04 217.169 27.9067 217.169 26.44C217.169 25.1867 217.342 23.9733 217.689 22.8H217.329C216.076 25.2533 214.436 27.2267 212.409 28.72C210.382 30.2133 208.196 30.96 205.849 30.96C203.716 30.96 202.129 30.3333 201.089 29.08C200.076 27.8267 199.569 26.1067 199.569 23.92C199.569 22.8 199.729 21.1867 200.049 19.08C200.396 16.9467 201.102 12.9067 202.169 6.96L200.409 3.4C201.822 2.54667 203.062 1.93333 204.129 1.56C205.222 1.16 206.262 0.96 207.249 0.96C208.129 0.96 208.782 1.22667 209.209 1.76C209.636 2.26667 209.849 3.04 209.849 4.08C209.849 4.42667 209.716 5.33333 209.449 6.8C209.182 8.24 208.889 9.78667 208.569 11.44C208.062 13.9733 207.622 16.2267 207.249 18.2C206.902 20.1733 206.729 21.4933 206.729 22.16C206.729 23.3867 206.942 24.3067 207.369 24.92C207.796 25.5067 208.516 25.8 209.529 25.8C210.489 25.8 211.476 25.44 212.489 24.72C213.529 24 214.516 22.9867 215.449 21.68C216.382 20.3733 217.169 18.8667 217.809 17.16C217.729 16.92 217.649 16.6667 217.569 16.4C217.516 16.1067 217.462 15.8133 217.409 15.52C217.249 14.1333 217.169 13.04 217.169 12.24C217.169 10.2133 217.449 8.34666 218.009 6.64C218.596 4.93333 219.449 3.56 220.569 2.52C221.716 1.48 223.102 0.96 224.729 0.96C225.902 0.96 226.982 1.22667 227.969 1.76C227.062 5.09333 226.209 9.05333 225.409 13.64C224.609 18.2 224.209 21.88 224.209 24.68C224.209 26.8933 224.542 28.5067 225.209 29.52C223.956 30.5333 222.582 31.04 221.089 31.04ZM239.876 31.04C238.409 31.04 237.356 30.64 236.716 29.84C236.102 29.04 235.796 27.7733 235.796 26.04C235.796 24.6267 236.022 22.3733 236.476 19.28C236.956 16.16 237.769 11.3733 238.916 4.92L245.956 6.28L245.076 11.32C244.382 15.2667 243.862 18.28 243.516 20.36C243.169 22.44 242.996 23.88 242.996 24.68C242.996 26.84 243.369 28.4533 244.116 29.52C242.729 30.5333 241.316 31.04 239.876 31.04ZM248.916 9.04C248.062 9.04 247.182 8.98667 246.276 8.88C245.396 8.74667 244.356 8.56 243.156 8.32C242.036 8.10667 241.009 7.94667 240.076 7.84C239.169 7.70667 238.276 7.64 237.396 7.64L231.196 8.96C230.796 8.05333 230.596 7.02667 230.596 5.88C230.596 4.41333 231.049 3.30666 231.956 2.56C232.862 1.78667 234.142 1.4 235.796 1.4C236.649 1.4 237.542 1.46667 238.476 1.6C239.409 1.70667 240.449 1.86667 241.596 2.08C242.796 2.32 243.822 2.50667 244.676 2.64C245.556 2.74667 246.436 2.81333 247.316 2.84L253.516 1.48C253.916 2.36 254.116 3.38667 254.116 4.56C254.116 5.94666 253.649 7.04 252.716 7.84C251.809 8.64 250.542 9.04 248.916 9.04ZM260.092 31.04C258.652 31.04 257.612 30.68 256.972 29.96C256.332 29.24 256.012 28.08 256.012 26.48C256.012 25.1467 256.198 23.1467 256.572 20.48C256.945 17.7867 257.665 13.28 258.732 6.96L256.972 3.4C259.505 1.77333 261.798 0.96 263.852 0.96C265.558 0.96 266.412 2 266.412 4.08C266.412 4.53333 266.265 5.6 265.972 7.28C265.705 8.96 265.398 10.7467 265.052 12.64C264.438 16.2133 263.972 18.9867 263.652 20.96C263.358 22.9067 263.212 24.2933 263.212 25.12C263.212 26.1333 263.318 26.9733 263.532 27.64C263.772 28.28 264.158 28.8533 264.692 29.36C263.305 30.48 261.772 31.04 260.092 31.04ZM269.972 31C268.398 31 266.892 30.8133 265.452 30.44C264.012 30.0933 262.585 29.5333 261.172 28.76L261.692 25.52H270.292C272.158 25.2533 273.932 24.8 275.612 24.16C275.878 24.88 276.012 25.6267 276.012 26.4C276.012 27.8933 275.505 29.04 274.492 29.84C273.478 30.6133 271.972 31 269.972 31ZM267.132 19.56C266.065 19.56 264.718 19.3467 263.092 18.92L263.812 15.08C265.012 15.32 266.318 15.44 267.732 15.44L271.092 14.6C271.118 14.7067 271.132 14.8267 271.132 14.96C271.132 15.0933 271.145 15.2133 271.172 15.32C271.198 15.4533 271.212 15.6 271.212 15.76C271.212 15.8933 271.212 16.0267 271.212 16.16C271.212 17.2267 270.852 18.0667 270.132 18.68C269.412 19.2667 268.412 19.56 267.132 19.56ZM271.212 8.88C269.985 8.88 268.625 8.74667 267.132 8.48C265.665 8.18667 264.412 7.81333 263.372 7.36L264.052 3.12C266.265 3.12 268.238 2.98666 269.972 2.72C271.705 2.45333 273.865 2.02667 276.452 1.44C276.638 1.41333 276.825 1.37333 277.012 1.32C277.198 1.26667 277.372 1.21333 277.532 1.16C277.718 1.96 277.812 2.70667 277.812 3.4C277.812 5.16 277.212 6.52 276.012 7.48C274.812 8.41333 273.212 8.88 271.212 8.88Z" fill="white"/>
</svg>
