<svg width="1292" height="161" viewBox="0 0 1292 161" fill="none" xmlns="http://www.w3.org/2000/svg">
<path d="M24.8102 160.2C16.2768 160.2 10.0768 158.067 6.21016 153.8C2.34349 149.533 0.410157 142.667 0.410157 133.2C0.410157 127.2 1.27682 118.2 3.01016 106.2C4.74349 94.0667 8.07682 73.9333 13.0102 45.8L2.41016 24.4C17.4768 14.6667 31.2102 9.8 43.6102 9.8C53.8768 9.8 59.0102 16.0667 59.0102 28.6C59.0102 31.5333 58.2102 37.5333 56.6102 46.6C55.1435 55.5333 53.4768 64.9333 51.6102 74.8C49.0768 88.4 47.0768 99.4667 45.6102 108C44.2768 116.533 43.6102 122.6 43.6102 126.2C43.6102 132.333 44.0102 137.267 44.8102 141C45.7435 144.733 47.3435 148.133 49.6102 151.2C42.8102 157.2 34.5435 160.2 24.8102 160.2ZM59.8102 105.2C55.4102 105.2 49.7435 104.333 42.8102 102.6L46.8102 79.8C52.0102 81.1333 57.2768 81.8 62.6102 81.8L80.6102 77.2C80.8768 77.8667 81.0102 78.6 81.0102 79.4C81.1435 80.0667 81.2768 80.8 81.4102 81.6C81.5435 82.4 81.6102 83.2667 81.6102 84.2C81.6102 85 81.6102 85.8667 81.6102 86.8C81.6102 92.5333 79.6768 97.0667 75.8102 100.4C71.9435 103.6 66.6102 105.2 59.8102 105.2ZM76.0102 56.4C71.0768 56.4 64.9435 55.6 57.6102 54C50.2768 52.2667 44.6768 50.4 40.8102 48.4L43.2102 21.4C54.1435 21.4 64.2102 20.6667 73.4102 19.2C82.7435 17.7333 93.8102 15.4 106.61 12.2C107.677 12.0667 108.677 11.8667 109.61 11.6C110.677 11.3333 111.677 11.0667 112.61 10.8C113.677 15.7333 114.21 20.0667 114.21 23.8C114.21 33.9333 110.81 41.9333 104.01 47.8C97.2102 53.5333 87.8768 56.4 76.0102 56.4ZM142.737 160C134.603 160 128.67 157.933 124.937 153.8C121.203 149.667 119.337 143.467 119.337 135.2C119.337 130.4 120.603 120.533 123.137 105.6C125.803 90.6667 128.737 76.2 131.937 62.2L121.337 46.2C126.403 42.7333 131.27 40 135.937 38C140.737 36 145.537 35 150.337 35C155.803 35 159.87 36.3333 162.537 39C165.337 41.6667 166.737 45.4 166.737 50.2C166.737 54.3333 166.203 58.4 165.137 62.4C164.07 66.4 162.47 71.2 160.337 76.8L162.337 77.8C165.803 68.0667 169.137 60.2667 172.337 54.4C175.537 48.4 179.337 43.7333 183.737 40.4C188.137 36.9333 193.537 35.2 199.937 35.2C206.07 35.2 210.937 37 214.537 40.6C218.137 44.0667 219.937 48.8 219.937 54.8C219.937 61.8667 217.67 67.6667 213.137 72.2C208.737 76.7333 202.47 79 194.337 79C188.07 79 182.337 81.3333 177.137 86C171.937 90.6667 167.87 97.0667 164.937 105.2C162.003 113.2 160.537 122.133 160.537 132C160.537 140.267 161.937 146.333 164.737 150.2C157.67 156.733 150.337 160 142.737 160ZM274.62 160C257.953 160 244.953 155.6 235.62 146.8C226.286 138 221.62 125.733 221.62 110C221.62 95.7333 225.02 82.9333 231.82 71.6C238.62 60.1333 248.02 51.2 260.02 44.8C272.02 38.2667 285.486 35 300.42 35C312.686 35 322.153 37.5333 328.82 42.6C335.62 47.6667 339.02 54.8 339.02 64C339.02 73.4667 335.753 81.6 329.22 88.4C322.686 95.2 313.286 100.333 301.02 103.8C288.753 107.267 274.22 108.867 257.42 108.6L260.02 93.8C274.286 93 285.22 90.4 292.82 86C300.553 81.4667 304.42 75.5333 304.42 68.2C304.42 65.2667 303.42 62.9333 301.42 61.2C299.42 59.3333 296.82 58.4 293.62 58.4C288.02 58.4 282.686 60.8667 277.62 65.8C272.686 70.6 268.686 77 265.62 85C262.686 93 261.22 101.467 261.22 110.4C261.22 119.467 262.753 126.6 265.82 131.8C269.02 136.867 273.42 139.4 279.02 139.4C285.82 139.4 291.42 136.933 295.82 132C300.22 126.933 302.553 120.333 302.82 112.2C310.82 112.2 316.886 113.667 321.02 116.6C325.286 119.533 327.42 123.8 327.42 129.4C327.42 135 325.086 140.133 320.42 144.8C315.753 149.467 309.353 153.133 301.22 155.8C293.22 158.6 284.353 160 274.62 160ZM401.446 160C383.979 160 371.313 157.8 363.446 153.4C355.579 148.867 351.646 142.8 351.646 135.2C351.646 131.733 352.646 128.133 354.646 124.4C356.646 120.667 359.446 117.467 363.046 114.8C366.646 121.333 371.446 126.467 377.446 130.2C383.446 133.8 390.713 135.6 399.246 135.6C403.646 135.6 408.179 134.6 412.846 132.6C417.513 130.467 419.846 127.467 419.846 123.6C419.846 121.2 418.313 119.267 415.246 117.8C412.179 116.333 407.046 114.467 399.846 112.2C391.446 109.667 384.446 107.2 378.846 104.8C373.246 102.267 368.379 98.7333 364.246 94.2C360.113 89.5333 358.046 83.6 358.046 76.4C358.046 66.9333 360.913 59.1333 366.646 53C372.513 46.7333 380.246 42.2 389.846 39.4C399.579 36.4667 410.313 35 422.046 35C436.046 35 447.113 37.2 455.246 41.6C463.379 45.8667 467.446 51.5333 467.446 58.6C467.446 64.6 465.313 69.3333 461.046 72.8C456.779 76.2667 451.646 78 445.646 78C440.046 78 434.846 76.2667 430.046 72.8C425.246 69.3333 421.446 64.2667 418.646 57.6C413.046 58.1333 408.246 59.6667 404.246 62.2C400.246 64.7333 398.246 67.8667 398.246 71.6C398.246 73.7333 399.113 75.6 400.846 77.2C402.713 78.6667 404.979 79.9333 407.646 81C410.446 81.9333 414.446 83.2 419.646 84.8C427.913 87.3333 434.713 89.8 440.046 92.2C445.513 94.6 450.179 98.1333 454.046 102.8C458.046 107.467 460.046 113.533 460.046 121C460.046 129.933 456.979 137.333 450.846 143.2C444.713 149.067 437.113 153.333 428.046 156C419.113 158.667 410.246 160 401.446 160ZM509.552 160C501.419 160 495.486 157.933 491.752 153.8C488.019 149.667 486.152 143.467 486.152 135.2C486.152 129.733 487.286 120.467 489.552 107.4C491.819 94.3333 495.152 76.5333 499.552 54C500.352 49.7333 501.086 45.6667 501.752 41.8C502.552 37.9333 503.286 34.2 503.952 30.6L492.752 14.6C498.752 10.2 505.019 6.66666 511.552 3.99999C518.086 1.33332 524.286 -7.15256e-06 530.152 -7.15256e-06C536.419 -7.15256e-06 540.819 1.13333 543.352 3.4C545.886 5.53333 547.152 9.13332 547.152 14.2C547.152 17.4 546.619 21.6 545.552 26.8C544.619 31.8667 543.086 38.8 540.952 47.6C538.152 59.6 536.086 68.6667 534.752 74.8L536.752 75.8C544.619 62.2 553.419 52 563.152 45.2C573.019 38.4 583.152 35 593.552 35C601.686 35 607.752 37 611.752 41C615.752 44.8667 617.752 50.9333 617.752 59.2C617.752 63.7333 617.286 68.4667 616.352 73.4C615.419 78.3333 614.019 84.9333 612.152 93.2C610.019 102.133 608.419 109.467 607.352 115.2C606.419 120.8 605.952 126.4 605.952 132C605.952 140.267 607.352 146.333 610.152 150.2C603.086 156.733 595.752 160 588.152 160C580.019 160 574.086 157.933 570.352 153.8C566.619 149.667 564.752 143.467 564.752 135.2C564.752 129.733 565.352 124.133 566.552 118.4C567.752 112.667 569.486 106.133 571.752 98.8C573.486 92.6667 574.752 87.8667 575.552 84.4C576.352 80.8 576.752 77.6 576.752 74.8C576.752 69.2 574.486 66.4 569.952 66.4C564.886 66.4 558.952 69.3333 552.152 75.2C545.352 80.9333 539.486 88.8667 534.552 99C529.752 109 527.352 120 527.352 132C527.352 140.267 528.752 146.333 531.552 150.2C524.486 156.733 517.152 160 509.552 160ZM703.291 108C697.558 108 692.558 107.533 688.291 106.6C684.158 105.533 679.825 103.8 675.291 101.4V77.6C677.558 79.4667 680.225 80.8667 683.291 81.8C686.358 82.6 689.491 83 692.691 83C698.825 83 704.358 81.8667 709.291 79.6C714.358 77.2 718.291 73.8667 721.091 69.6C724.025 65.3333 725.491 60.4 725.491 54.8C725.491 49.8667 723.691 45.4667 720.091 41.6C716.625 37.7333 711.691 35.8 705.291 35.8C701.291 35.8 697.225 36.8 693.091 38.8C688.958 40.6667 684.491 43.5333 679.691 47.4V27C684.758 23.1333 689.225 20.0667 693.091 17.8C697.091 15.5333 701.691 13.7333 706.891 12.4C712.225 10.9333 718.425 10.2 725.491 10.2C734.691 10.2 742.625 12.2 749.291 16.2C756.091 20.0667 761.225 25.2 764.691 31.6C768.291 38 770.091 44.8 770.091 52C770.091 61.6 767.625 70.6667 762.691 79.2C757.758 87.7333 750.225 94.6667 740.091 100C730.091 105.333 717.825 108 703.291 108ZM663.091 160.2C654.558 160.2 648.358 158.067 644.491 153.8C640.625 149.533 638.691 142.667 638.691 133.2C638.691 127.333 639.491 118.533 641.091 106.8C642.825 95.0667 646.225 74.7333 651.291 45.8L640.691 24.4C655.758 14.6667 669.491 9.8 681.891 9.8C692.158 9.8 697.291 16.0667 697.291 28.6C697.291 32.8667 695.158 45.9333 690.891 67.8C687.958 83.1333 685.691 95.4 684.091 104.6C682.625 113.667 681.891 120.867 681.891 126.2C681.891 132.333 682.291 137.267 683.091 141C684.025 144.733 685.625 148.133 687.891 151.2C680.291 157.2 672.025 160.2 663.091 160.2ZM747.491 160C741.225 160 735.891 158.933 731.491 156.8C727.225 154.8 723.425 151.467 720.091 146.8C716.891 142 713.825 135.467 710.891 127.2L701.691 101.2L740.891 85.2C746.358 101.467 752.091 115.2 758.091 126.4C764.225 137.467 770.225 145 776.091 149C773.158 151.933 768.825 154.467 763.091 156.6C757.358 158.867 752.158 160 747.491 160ZM839.905 160C828.839 160 819.172 157.867 810.905 153.6C802.639 149.2 796.239 143.067 791.705 135.2C787.305 127.2 785.105 117.933 785.105 107.4C785.105 93.4 788.372 80.9333 794.905 70C801.439 59.0667 810.439 50.5333 821.905 44.4C833.505 38.1333 846.572 35 861.105 35C865.639 35 870.372 35.5333 875.305 36.6C876.772 41 877.372 46.5333 877.105 53.2C866.705 53.2 857.505 55.6667 849.505 60.6C841.639 65.4 835.505 72 831.105 80.4C826.839 88.6667 824.705 97.8 824.705 107.8C824.705 118.733 826.572 126.733 830.305 131.8C834.172 136.867 839.505 139.4 846.305 139.4C851.372 139.4 855.905 138.067 859.905 135.4C864.039 132.6 867.439 128.6 870.105 123.4C872.772 118.2 874.505 112 875.305 104.8C870.239 102 866.439 98.4667 863.905 94.2C861.372 89.9333 860.105 84.9333 860.105 79.2C860.105 73.8667 861.239 69 863.505 64.6C865.772 60.0667 868.839 56.5333 872.705 54C876.705 51.4667 881.039 50.2 885.705 50.2C893.439 50.2 899.705 53.3333 904.505 59.6C909.439 65.7333 911.905 73.7333 911.905 83.6C911.905 97.6 908.705 110.467 902.305 122.2C895.905 133.8 887.172 143 876.105 149.8C865.172 156.6 853.105 160 839.905 160ZM963.455 160C952.789 160 944.855 157.333 939.655 152C934.455 146.667 931.855 138.533 931.855 127.6C931.855 122.667 932.255 117.467 933.055 112C933.855 106.4 935.055 99.7333 936.655 92C937.722 86.6667 938.655 81.4 939.455 76.2C940.255 70.8667 940.655 66.4667 940.655 63C940.655 59.1333 940.255 55.6 939.455 52.4C938.789 49.2 937.789 46.6667 936.455 44.8C941.922 42 947.589 39.6667 953.455 37.8C959.455 35.9333 964.255 35 967.855 35C973.322 35 977.255 36.1333 979.655 38.4C982.189 40.5333 983.455 44.1333 983.455 49.2C983.455 52.4 982.789 57.5333 981.455 64.6C980.122 71.6667 978.722 78.8 977.255 86C975.789 92.9333 974.389 99.7333 973.055 106.4C971.855 113.067 971.255 117.8 971.255 120.6C971.255 125.8 972.322 129.6 974.455 132C976.589 134.4 979.989 135.6 984.655 135.6C990.255 135.6 995.855 133.533 1001.46 129.4C1007.06 125.133 1011.52 119.667 1014.86 113L1017.86 144.8L1006.86 139.4C1001.39 145.933 994.989 151 987.655 154.6C980.322 158.2 972.255 160 963.455 160ZM1032.26 160C1024.12 160 1018.12 158 1014.26 154C1010.52 150 1008.66 143.733 1008.66 135.2C1008.66 130.8 1009.72 122.867 1011.86 111.4C1013.99 99.8 1017.19 84.9333 1021.46 66.8L1010.26 50C1019.46 44.5333 1026.99 40.6667 1032.86 38.4C1038.86 36.1333 1044.46 35 1049.66 35C1054.99 35 1058.79 36.1333 1061.06 38.4C1063.46 40.6667 1064.66 44.4667 1064.66 49.8C1064.66 51.5333 1064.12 54.7333 1063.06 59.4C1062.12 63.9333 1061.06 68.9333 1059.86 74.4C1056.79 87.0667 1054.32 98.1333 1052.46 107.6C1050.72 116.933 1049.86 125.067 1049.86 132C1049.86 140.667 1051.92 146.733 1056.06 150.2C1048.46 156.733 1040.52 160 1032.26 160ZM1115.79 160C1108.59 160 1102.92 158.2 1098.79 154.6C1094.79 151 1092.79 144.333 1092.79 134.6C1092.79 128.2 1093.59 120.733 1095.19 112.2C1096.92 103.533 1099.26 93.6 1102.19 82.4C1104.06 74.8 1105.46 68.7333 1106.39 64.2C1107.46 59.5333 1107.99 55.9333 1107.99 53.4C1107.99 46.3333 1106.72 39.3333 1104.19 32.4L1103.19 30C1108.26 25.6 1113.86 22.0667 1119.99 19.4C1126.26 16.7333 1132.59 15.4 1138.99 15.4C1144.46 15.4 1148.32 16.6 1150.59 19C1152.99 21.4 1154.19 25.3333 1154.19 30.8C1154.19 32.9333 1153.59 36.2 1152.39 40.6C1151.32 45 1149.99 49.8 1148.39 55C1144.26 68.6 1140.92 81.1333 1138.39 92.6C1135.99 104.067 1134.59 116.067 1134.19 128.6L1145.39 147.4C1140.99 151.533 1136.19 154.667 1130.99 156.8C1125.79 158.933 1120.72 160 1115.79 160ZM1100.19 70.2C1094.86 70.2 1091.19 69.4667 1089.19 68C1087.32 66.5333 1086.39 63.7333 1086.39 59.6C1086.39 55.6 1087.46 51.0667 1089.59 46C1095.46 47.7333 1101.72 48.6 1108.39 48.6C1115.19 48.6 1123.46 47.8667 1133.19 46.4C1137.06 45.8667 1141.06 45.4 1145.19 45C1149.32 44.6 1153.12 44.4 1156.59 44.4C1161.92 44.4 1165.52 45.1333 1167.39 46.6C1169.39 48.0667 1170.39 50.9333 1170.39 55.2C1170.39 58.9333 1169.32 63.4667 1167.19 68.8C1164.52 67.8667 1161.52 67.2 1158.19 66.8C1154.99 66.2667 1151.72 66 1148.39 66C1144.39 66 1140.39 66.2 1136.39 66.6C1132.52 67 1128.26 67.5333 1123.59 68.2C1113.19 69.5333 1105.39 70.2 1100.19 70.2ZM1226.96 160C1210.3 160 1197.3 155.6 1187.96 146.8C1178.63 138 1173.96 125.733 1173.96 110C1173.96 95.7333 1177.36 82.9333 1184.16 71.6C1190.96 60.1333 1200.36 51.2 1212.36 44.8C1224.36 38.2667 1237.83 35 1252.76 35C1265.03 35 1274.5 37.5333 1281.16 42.6C1287.96 47.6667 1291.36 54.8 1291.36 64C1291.36 73.4667 1288.1 81.6 1281.56 88.4C1275.03 95.2 1265.63 100.333 1253.36 103.8C1241.1 107.267 1226.56 108.867 1209.76 108.6L1212.36 93.8C1226.63 93 1237.56 90.4 1245.16 86C1252.9 81.4667 1256.76 75.5333 1256.76 68.2C1256.76 65.2667 1255.76 62.9333 1253.76 61.2C1251.76 59.3333 1249.16 58.4 1245.96 58.4C1240.36 58.4 1235.03 60.8667 1229.96 65.8C1225.03 70.6 1221.03 77 1217.96 85C1215.03 93 1213.56 101.467 1213.56 110.4C1213.56 119.467 1215.1 126.6 1218.16 131.8C1221.36 136.867 1225.76 139.4 1231.36 139.4C1238.16 139.4 1243.76 136.933 1248.16 132C1252.56 126.933 1254.9 120.333 1255.16 112.2C1263.16 112.2 1269.23 113.667 1273.36 116.6C1277.63 119.533 1279.76 123.8 1279.76 129.4C1279.76 135 1277.43 140.133 1272.76 144.8C1268.1 149.467 1261.7 153.133 1253.56 155.8C1245.56 158.6 1236.7 160 1226.96 160Z" fill="#FFBB38" fill-opacity="0.2"/>
</svg>
